# xmcd
#
# Track frame offsets:
#	150
#	21782
#	38262
#	57255
#	72251
#	87672
#	102900
#	119708
#	141272
#	162087
#	179390
#	201034
#	223148
#	251449
#
# Disc length: 3691 seconds
#
# Revision: 4
# Processed by: cddbd v1.5.2PL0 Copyright (c) Steve Scherf et al.
# Submitted via: EasyCDDAExtractor 15.3.0.1
#
DISCID=c80e690e
DTITLE=Mariah Carey - Me. I Am Mariah... The Elusive Chanteuse
DYEAR=2014
DGENRE=R&B/Pop
TTITLE0=Cry.
TTITLE1=Faded
TTITLE2=Dedicated (Featuring Nas)
TTITLE3=#Beautiful (Featuring Miguel)
TTITLE4=Thirsty
TTITLE5=Make It Look Good
TTITLE6=You're Mine (Eternal)
TTITLE7=You Don't Know What To Do (Featuring Wale)
TTITLE8=Supernatural (With Special Guest Stars ''Dembabies'' A.K.A. Ms. Monroe
TTITLE8=and Mr. Moroccan Scott Cannon A.K.A. Roc N' Roe)
TTITLE9=Meteorite
TTITLE10=Camouflage
TTITLE11=Money (Featuring Fabolous)
TTITLE12=One More Try
TTITLE13=Heavenly (No Ways Tired, Can't Give Up Now)
EXTD=
EXTT0=
EXTT1=
EXTT2=
EXTT3=
EXTT4=
EXTT5=
EXTT6=
EXTT7=
EXTT8=
EXTT9=
EXTT10=
EXTT11=
EXTT12=
EXTT13=
PLAYORDER=
